# File created by Blade
# Date/Time:  Thu Jan 22 19:24:19 2015
# Frame Rate: 120.000 fps
#------------------------------------------------------
:FULLY-SPECIFIED
:DEGREES
3205
root -5.309911 33.228938 -6.382533 0.727578 -10.758932 10.902887
RightUpLeg -7.504694 -2.603177 -0.130479
RightLeg 16.490706 -0.000000 -0.000000
RightFoot -17.291137 -3.354480 -4.413005
RightToeBase 5.366830 -0.000000 -0.000000
LeftUpLeg -100.613985 -3.268266 -5.766948
LeftLeg 109.508759 -0.000000 -0.000000
LeftFoot 6.546614 1.262403 -16.809634
LeftToeBase 3.881463 -0.000000 -0.000000
Spine 2.764793 2.869907 -5.796024
RightShoulder -10.648092 -2.932999 -21.792934
RightArm 35.169011 8.116808 58.345896
RightForeArm -9.933368 -0.000000 42.118103
RightHand 14.982773 0.000000 4.605552
RightHandThumb1 -24.326973 -0.000000 -32.862282
LeftShoulder -23.107488 1.812726 26.593345
LeftArm 15.042878 -29.107440 -45.129875
LeftForeArm 14.051234 -0.000000 3.572248
LeftHand 0.790191 -0.000000 1.160261
LeftHandThumb1 -26.253704 0.000000 33.147579
Head -13.163271 7.131674 -11.739084
3206
root -5.307929 33.228125 -6.394381 0.668840 -11.011714 10.836412
RightUpLeg -7.527838 -2.531427 -0.087333
RightLeg 16.577135 -0.000000 -0.000000
RightFoot -17.418355 -3.009902 -3.897410
RightToeBase 5.955147 -0.000000 -0.000000
LeftUpLeg -100.737682 -3.506216 -5.641097
LeftLeg 109.508149 -0.000000 -0.000000
LeftFoot 6.698591 0.942415 -16.696692
LeftToeBase 3.932864 -0.000000 -0.000000
Spine 2.879027 3.213149 -5.676632
RightShoulder -10.380410 -2.601348 -21.789589
RightArm 35.688402 7.446943 58.646009
RightForeArm -9.795575 -0.000000 42.395085
RightHand 15.004771 -0.000000 4.730112
RightHandThumb1 -24.326973 -0.000000 -32.862282
LeftShoulder -23.097514 1.846045 26.518184
LeftArm 15.005449 -29.064405 -45.142158
LeftForeArm 14.062811 -0.000000 3.468405
LeftHand 0.911283 -0.000000 1.241379
LeftHandThumb1 -26.253704 0.000000 33.147579
Head -13.308332 7.001244 -11.840355
3207
root -5.303578 33.228546 -6.408563 0.599494 -11.327390 10.783442
RightUpLeg -7.567327 -2.494862 -0.068097
RightLeg 16.684240 -0.000000 -0.000000
RightFoot -17.594189 -2.572787 -3.199102
RightToeBase 6.613669 -0.000000 -0.000000
LeftUpLeg -100.851415 -3.691242 -5.550018
LeftLeg 109.512916 -0.000000 -0.000000
LeftFoot 6.838837 0.630881 -16.624687
LeftToeBase 3.979218 -0.000000 -0.000000
Spine 3.007599 3.597009 -5.576733
RightShoulder -10.068791 -2.288762 -21.764494
RightArm 36.262591 6.789929 58.935139
RightForeArm -9.809445 -0.000000 42.616100
RightHand 15.140831 0.000000 4.755734
RightHandThumb1 -24.326973 -0.000000 -32.862282
LeftShoulder -23.091810 1.877782 26.450137
LeftArm 14.956762 -28.972603 -45.137120
LeftForeArm 14.064692 -0.000000 3.399464
LeftHand 0.854815 -0.000000 1.121149
LeftHandThumb1 -26.253704 0.000000 33.147579
Head -13.459953 6.873355 -11.920597
3208
root -5.299057 33.229290 -6.422405 0.539116 -11.674764 10.731419
RightUpLeg -7.632301 -2.521916 -0.053515
RightLeg 16.820461 -0.000000 -0.000000
RightFoot -17.800617 -2.065083 -2.414104
RightToeBase 7.128349 -0.000000 -0.000000
LeftUpLeg -100.990666 -3.843344 -5.476821
LeftLeg 109.513212 -0.000000 -0.000000
LeftFoot 7.064271 0.360894 -16.607245
LeftToeBase 3.911572 -0.000000 -0.000000
Spine 3.132615 4.034245 -5.475680
RightShoulder -9.802573 -2.050561 -21.742145
RightArm 36.920098 6.153467 59.282613
RightForeArm -9.904068 -0.000000 42.849464
RightHand 15.299424 0.000000 4.971628
RightHandThumb1 -24.326973 -0.000000 -32.862282
LeftShoulder -23.097722 1.943657 26.377477
LeftArm 14.969451 -29.060960 -45.197178
LeftForeArm 14.140147 -0.000000 3.297975
LeftHand 0.961130 0.000000 1.026026
LeftHandThumb1 -26.253704 0.000000 33.147579
Head -13.641366 6.730020 -11.997547
3209
root -5.295022 33.229335 -6.438430 0.484812 -12.064096 10.670202
RightUpLeg -7.723578 -2.542188 -0.034209
RightLeg 16.983484 -0.000000 -0.000000
RightFoot -18.073272 -1.421307 -1.430997
RightToeBase 7.728384 -0.000000 -0.000000
LeftUpLeg -101.142631 -3.951016 -5.425156
LeftLeg 109.538858 -0.000000 -0.000000
LeftFoot 7.220028 0.090393 -16.471979
LeftToeBase 3.919537 -0.000000 -0.000000
Spine 3.267478 4.523871 -5.357372
RightShoulder -9.510417 -1.761260 -21.688425
RightArm 37.476272 5.312982 59.263511
RightForeArm -9.622959 -0.000000 43.197956
RightHand 15.148263 0.000000 4.948429
RightHandThumb1 -24.326973 -0.000000 -32.862282
LeftShoulder -23.080922 1.889387 26.318426
LeftArm 14.890097 -29.040926 -45.149451
LeftForeArm 14.127117 -0.000000 3.171654
LeftHand 1.022693 -0.000000 1.021662
LeftHandThumb1 -26.253704 0.000000 33.147579
Head -13.848466 6.580233 -12.092046
3210
root -5.290419 33.229185 -6.456261 0.424457 -12.471644 10.613659
RightUpLeg -7.828506 -2.539120 -0.029492
RightLeg 17.188105 -0.000000 -0.000000
RightFoot -18.411343 -0.608983 -0.138906
RightToeBase 8.318449 -0.000000 -0.000000
LeftUpLeg -101.288550 -4.038526 -5.399496
LeftLeg 109.562121 -0.000000 -0.000000
LeftFoot 7.393376 -0.112853 -16.520764
LeftToeBase 3.864108 -0.000000 -0.000000
Spine 3.403164 5.007736 -5.244011
RightShoulder -9.172444 -1.476899 -21.685567
RightArm 38.126060 4.640980 59.560078
RightForeArm -9.729904 -0.000000 43.373886
RightHand 15.279854 0.000000 5.002940
RightHandThumb1 -24.326973 -0.000000 -32.862282
LeftShoulder -23.089779 1.936367 26.269710
LeftArm 14.873497 -29.129641 -45.193322
LeftForeArm 14.054794 -0.000000 3.080722
LeftHand 0.951336 -0.000000 0.987226
LeftHandThumb1 -26.253704 0.000000 33.147579
Head -14.028929 6.460661 -12.179248
